<svg width="24" height="25" viewBox="0 0 24 25" fill="none" xmlns="http://www.w3.org/2000/svg">
<path fill-rule="evenodd" clip-rule="evenodd" d="M2.57684 4.5C2.46369 4.49987 2.35162 4.52204 2.24705 4.56525C2.14247 4.60846 2.04744 4.67186 1.96738 4.75183C1.88732 4.83179 1.82381 4.92675 1.78048 5.03128C1.73715 5.13581 1.71484 5.24785 1.71484 5.361V16.496C1.71484 16.971 2.10084 17.357 2.57684 17.357H7.28684V15.643H5.14384C5.14384 15.1884 4.96326 14.7525 4.64182 14.431C4.32039 14.1096 3.88442 13.929 3.42984 13.929V7.929C3.65501 7.929 3.87798 7.88463 4.08599 7.79843C4.29401 7.71224 4.48301 7.58589 4.64218 7.42663C4.80135 7.26736 4.92758 7.07829 5.01366 6.87023C5.09974 6.66216 5.14398 6.43917 5.14384 6.214H18.8578C18.8578 6.66885 19.0385 7.10506 19.3602 7.42669C19.6818 7.74831 20.118 7.929 20.5728 7.929V6.214V15.643V13.929C20.3476 13.9287 20.1246 13.9729 19.9165 14.0589C19.7083 14.1449 19.5192 14.2712 19.3599 14.4304C19.2006 14.5896 19.0743 14.7786 18.9881 14.9867C18.902 15.1948 18.8577 15.4178 18.8578 15.643H16.7148V17.357H21.4248C21.538 17.3571 21.6501 17.335 21.7546 17.2917C21.8592 17.2485 21.9543 17.1851 22.0343 17.1052C22.1144 17.0252 22.1779 16.9302 22.2212 16.8257C22.2645 16.7212 22.2868 16.6092 22.2868 16.496V5.36C22.2867 5.24693 22.2643 5.135 22.2209 5.03059C22.1775 4.92618 22.114 4.83133 22.034 4.75147C21.9539 4.67162 21.8589 4.60831 21.7544 4.56516C21.6499 4.52201 21.5379 4.49987 21.4248 4.5H2.57684ZM10.2868 10.929C10.2868 10.4744 10.4674 10.0385 10.7889 9.71702C11.1103 9.39558 11.5463 9.215 12.0008 9.215C12.4554 9.215 12.8914 9.39558 13.2128 9.71702C13.5343 10.0385 13.7148 10.4744 13.7148 10.929C13.7148 11.3836 13.5343 11.8195 13.2128 12.141C12.8914 12.4624 12.4554 12.643 12.0008 12.643C11.5463 12.643 11.1103 12.4624 10.7889 12.141C10.4674 11.8195 10.2868 11.3836 10.2868 10.929ZM12.0008 7.5C11.5457 7.49223 11.0935 7.57516 10.6707 7.74397C10.248 7.91278 9.86304 8.16408 9.53841 8.48322C9.21378 8.80235 8.95594 9.18294 8.77994 9.60277C8.60393 10.0226 8.51329 10.4733 8.51329 10.9285C8.51329 11.3837 8.60393 11.8344 8.77994 12.2542C8.95594 12.6741 9.21378 13.0546 9.53841 13.3738C9.86304 13.6929 10.248 13.9442 10.6707 14.113C11.0935 14.2818 11.5457 14.3648 12.0008 14.357C12.9 14.3416 13.7571 13.9737 14.3876 13.3324C15.018 12.6911 15.3713 11.8278 15.3713 10.9285C15.3713 10.0292 15.018 9.16592 14.3876 8.52462C13.7571 7.88333 12.9 7.51536 12.0008 7.5ZM11.1438 19.788L9.39284 18.037L8.18084 19.249L11.3918 22.46C11.5535 22.6213 11.7725 22.7119 12.0008 22.7119C12.2292 22.7119 12.4482 22.6213 12.6098 22.46L15.8208 19.249L14.6088 18.037L12.8588 19.787V15.643H11.1438V19.788Z" fill="#1F7DFD"/>
</svg>
