<?xml version="1.0" standalone="no"?>
<svg version="1.0" xmlns="http://www.w3.org/2000/svg"
 width="192.000000pt" height="192.000000pt" viewBox="0 0 192.000000 192.000000"
 preserveAspectRatio="xMidYMid meet">

<g transform="translate(0.000000,192.000000) scale(0.100000,-0.100000)"
fill="#000000" stroke="none">
<path d="M1025 1584 c-214 -52 -396 -101 -404 -109 -13 -12 -6 -32 47 -147 34
-73 62 -141 62 -150 0 -24 -20 -32 -139 -59 -57 -12 -114 -31 -127 -42 -23
-18 -24 -23 -24 -161 0 -203 2 -205 185 -162 137 33 135 30 135 215 0 140 1
149 23 169 16 15 105 41 351 100 195 47 332 85 337 93 12 20 11 306 -1 330 -6
10 -20 19 -33 18 -12 0 -197 -43 -412 -95z"/>
<path d="M1146 1129 c-159 -38 -296 -75 -303 -81 -22 -18 -15 -43 42 -164 58
-124 63 -145 41 -163 -8 -7 -117 -36 -241 -65 -133 -31 -231 -59 -236 -67 -5
-8 -8 -86 -6 -173 2 -134 5 -160 18 -169 12 -8 94 7 310 58 162 37 304 71 317
76 33 13 28 38 -33 159 -55 109 -66 158 -42 177 6 6 104 32 217 59 156 37 210
54 228 71 21 21 22 30 22 176 0 150 -5 178 -34 176 -6 0 -141 -32 -300 -70z"/>
</g>
</svg>
