<svg width="131" height="40" viewBox="0 0 131 40" fill="none" xmlns="http://www.w3.org/2000/svg">
<path d="M21.7521 2.78257C19.0759 1.22934 15.7733 1.2262 13.0942 2.77433L0.290039 10.1732L17.4255 20.1034L22.2075 17.3355L8.85778 10.1732L21.7521 2.78257Z" fill="#00AEEF"/>
<path d="M0.290039 10.1738C0.290039 13.2615 1.8843 16.1304 4.50632 17.761L6.02559 18.7058C9.59241 20.924 11.7611 24.8266 11.7611 29.0269V30.9759L0.290039 25.0691C0.290039 28.1247 1.91755 30.9489 4.56123 32.4809L17.4255 39.9359V20.104L0.290039 10.1738Z" fill="#252525"/>
<path d="M22.2078 17.3359V31.6425C22.2078 35.0622 20.3854 38.2226 17.4258 39.9357V20.1038L22.2078 17.3359Z" fill="#0081C0"/>
<path d="M0.290039 25.0679C2.56833 23.74 5.37601 23.7038 7.68777 24.9725L11.7611 27.208V30.9746L0.290039 25.0679Z" fill="#00375A"/>
<path d="M21.7527 2.7832C21.7527 5.38764 20.3336 7.78515 18.0504 9.03811L12.4449 12.1142L8.8584 10.1738L21.7527 2.7832Z" fill="#0081C0"/>
<path d="M22.7765 3.32422L28.7255 6.63429L34.6746 9.97289C34.8274 10.0622 34.8274 10.283 34.6746 10.3724L31.8566 12.056C30.9173 12.6267 29.978 13.1688 29.0102 13.6824C28.0424 14.2246 27.1031 14.7382 26.1353 15.2519C25.1675 15.7655 24.1997 16.2791 23.2035 16.7357L23.175 16.6786C24.0859 16.0509 24.9967 15.4802 25.936 14.8809C26.8469 14.2817 27.7862 13.7395 28.7255 13.1688C29.6649 12.5981 30.6042 12.056 31.572 11.5138L34.4469 9.97289V10.3724L28.5832 6.8911L22.748 3.38129L22.7765 3.32422Z" fill="#0581C0"/>
<path d="M22.8337 6.7207L30.5191 11.3434L22.6914 6.97752L22.8337 6.7207Z" fill="#0581C0"/>
<path d="M23.1201 20.7027L28.7845 17.307L31.6309 15.6235C32.5703 15.0813 33.538 14.5106 34.5058 13.9684L34.6766 13.8828V14.0826L34.6481 22.0438L34.5912 30.0051H34.5628L34.5058 22.0438L34.4489 14.0826L34.6197 14.1967C33.6804 14.7674 32.741 15.3381 31.7733 15.8803L28.8984 17.5068L23.1201 20.7027Z" fill="#0581C0"/>
<path d="M32.1118 16.7656L31.9695 30.9761L31.8271 16.7656H32.1118Z" fill="#0581C0"/>
<path d="M124.287 26.8842C124.139 26.8842 124.014 26.8387 123.911 26.7476C123.82 26.6451 123.774 26.5198 123.774 26.3718V14.0554C123.774 13.9074 123.82 13.7878 123.911 13.6967C124.014 13.5942 124.139 13.543 124.287 13.543H130.368C130.505 13.543 130.624 13.5942 130.727 13.6967C130.829 13.7878 130.881 13.9074 130.881 14.0554C130.881 14.1921 130.829 14.3117 130.727 14.4142C130.624 14.5167 130.505 14.5679 130.368 14.5679H124.799V19.6926H128.318C128.466 19.6926 128.586 19.7438 128.677 19.8463C128.78 19.9374 128.831 20.057 128.831 20.2051C128.831 20.3531 128.78 20.4784 128.677 20.5809C128.586 20.6834 128.466 20.7346 128.318 20.7346H124.799V25.8593H130.368C130.505 25.8593 130.624 25.9105 130.727 26.013C130.829 26.1155 130.881 26.2351 130.881 26.3718C130.881 26.5198 130.829 26.6451 130.727 26.7476C130.624 26.8387 130.505 26.8842 130.368 26.8842H124.287Z" fill="#252525"/>
<path fill-rule="evenodd" clip-rule="evenodd" d="M123.826 26.8322L123.821 26.8269C123.709 26.7005 123.654 26.5461 123.654 26.3711V14.0548C123.654 13.8799 123.709 13.728 123.826 13.6109C123.952 13.4853 124.108 13.4219 124.287 13.4219H130.368C130.538 13.4219 130.687 13.4865 130.81 13.6084C130.938 13.7241 131.001 13.8766 131.001 14.0548C131.001 14.2254 130.936 14.3751 130.812 14.4986C130.689 14.6222 130.539 14.6876 130.368 14.6876H124.92V19.5715H128.319C128.496 19.5715 128.647 19.6335 128.763 19.7604C128.889 19.8758 128.951 20.0275 128.951 20.2044C128.951 20.3824 128.889 20.5377 128.765 20.6629C128.649 20.7915 128.497 20.8544 128.319 20.8544H124.92V25.7382H130.368C130.539 25.7382 130.689 25.8037 130.812 25.9272C130.936 26.0508 131.001 26.2004 131.001 26.3711C131.001 26.5503 130.938 26.7064 130.812 26.832L130.81 26.8346L130.807 26.8369C130.683 26.9475 130.535 27.004 130.368 27.004H124.287C124.112 27.004 123.958 26.9492 123.831 26.8369L123.826 26.8322ZM124.8 25.8586V20.7339H128.319C128.467 20.7339 128.586 20.6827 128.677 20.5802C128.78 20.4777 128.831 20.3524 128.831 20.2044C128.831 20.0563 128.78 19.9368 128.677 19.8457C128.586 19.7432 128.467 19.6919 128.319 19.6919H124.8V14.5672H130.368C130.505 14.5672 130.625 14.516 130.727 14.4135C130.83 14.311 130.881 14.1914 130.881 14.0548C130.881 13.9067 130.83 13.7871 130.727 13.696C130.625 13.5935 130.505 13.5423 130.368 13.5423H124.287C124.139 13.5423 124.014 13.5935 123.911 13.696C123.82 13.7871 123.775 13.9067 123.775 14.0548V26.3711C123.775 26.5191 123.82 26.6444 123.911 26.7469C124.014 26.838 124.139 26.8836 124.287 26.8836H130.368C130.505 26.8836 130.625 26.838 130.727 26.7469C130.83 26.6444 130.881 26.5191 130.881 26.3711C130.881 26.2344 130.83 26.1149 130.727 26.0124C130.625 25.9099 130.505 25.8586 130.368 25.8586H124.8Z" fill="#252525"/>
<path d="M109.473 26.8842C109.325 26.8842 109.2 26.8387 109.098 26.7476C109.006 26.6451 108.961 26.5198 108.961 26.3718V14.0554C108.961 13.896 109.006 13.7707 109.098 13.6796C109.2 13.5885 109.325 13.543 109.473 13.543H116.285C117.264 13.543 118.158 13.7081 118.967 14.0384C119.787 14.3572 120.493 14.8184 121.085 15.422C121.689 16.0142 122.15 16.7146 122.469 17.5231C122.799 18.3317 122.964 19.2257 122.964 20.2051C122.964 21.1844 122.799 22.0841 122.469 22.9041C122.15 23.7126 121.689 24.4187 121.085 25.0223C120.493 25.6145 119.787 26.0757 118.967 26.4059C118.158 26.7248 117.264 26.8842 116.285 26.8842H109.473ZM109.986 25.9618H116.285C117.39 25.9618 118.363 25.7113 119.206 25.2102C120.06 24.7091 120.726 24.0258 121.205 23.1603C121.694 22.2948 121.939 21.3097 121.939 20.2051C121.939 19.1004 121.694 18.121 121.205 17.2669C120.726 16.4014 120.06 15.7181 119.206 15.217C118.363 14.716 117.39 14.4654 116.285 14.4654H109.986V25.9618Z" fill="#252525"/>
<path fill-rule="evenodd" clip-rule="evenodd" d="M109.012 26.8322L109.007 26.8269C108.895 26.7005 108.84 26.5461 108.84 26.3711V14.0548C108.84 13.8714 108.893 13.7126 109.012 13.5938L109.014 13.5913L109.017 13.5889C109.143 13.4766 109.298 13.4219 109.473 13.4219H116.284C117.277 13.4219 118.186 13.5892 119.011 13.9258C119.845 14.2505 120.565 14.7206 121.17 15.3362C121.785 15.9402 122.255 16.6544 122.58 17.4776C122.916 18.3021 123.084 19.2115 123.084 20.2044C123.084 21.1974 122.916 22.1124 122.58 22.948C122.255 23.7714 121.785 24.4914 121.17 25.1067C120.565 25.711 119.845 26.181 119.011 26.517L119.01 26.5173C118.186 26.8424 117.277 27.004 116.284 27.004H109.473C109.298 27.004 109.143 26.9492 109.017 26.8369L109.012 26.8322ZM118.966 14.0377C118.158 13.7074 117.264 13.5423 116.284 13.5423H109.473C109.325 13.5423 109.199 13.5878 109.097 13.6789C109.006 13.7701 108.96 13.8953 108.96 14.0548V26.3711C108.96 26.5191 109.006 26.6444 109.097 26.7469C109.199 26.838 109.325 26.8836 109.473 26.8836H116.284C117.264 26.8836 118.158 26.7241 118.966 26.4053C119.786 26.075 120.492 25.6138 121.084 25.0216C121.688 24.418 122.149 23.7119 122.468 22.9034C122.798 22.0834 122.963 21.1838 122.963 20.2044C122.963 19.225 122.798 18.331 122.468 17.5225C122.149 16.7139 121.688 16.0135 121.084 15.4213C120.492 14.8178 119.786 14.3565 118.966 14.0377ZM119.144 25.106L119.144 25.1056C119.98 24.6155 120.631 23.9479 121.099 23.1014L121.099 23.1003C121.578 22.2549 121.818 21.2906 121.818 20.2044C121.818 19.1181 121.578 18.1599 121.1 17.3261L121.099 17.3253L121.099 17.3245C120.631 16.4779 119.98 15.8104 119.144 15.3202L119.144 15.3199C118.322 14.8312 117.37 14.5851 116.284 14.5851H110.106V25.8407H116.284C117.37 25.8407 118.322 25.5947 119.144 25.106ZM109.985 25.9611V14.4647H116.284C117.389 14.4647 118.363 14.7153 119.205 15.2164C120.059 15.7174 120.726 16.4007 121.204 17.2662C121.694 18.1203 121.939 19.0997 121.939 20.2044C121.939 21.309 121.694 22.2941 121.204 23.1596C120.726 24.0251 120.059 24.7084 119.205 25.2095C118.363 25.7106 117.389 25.9611 116.284 25.9611H109.985Z" fill="#252525"/>
<path d="M97.27 26.8842C97.0537 26.8842 96.8999 26.7988 96.8088 26.628C96.7291 26.4572 96.7291 26.2977 96.8088 26.1497L101.985 13.9017C102.076 13.6625 102.241 13.543 102.48 13.543C102.708 13.543 102.873 13.6625 102.976 13.9017L108.169 26.1497C108.26 26.3091 108.254 26.4743 108.151 26.6451C108.049 26.8045 107.901 26.8842 107.707 26.8842C107.593 26.8842 107.497 26.8615 107.417 26.8159C107.349 26.759 107.286 26.6736 107.229 26.5597L102.207 14.585H102.753L97.7483 26.5597C97.7028 26.6736 97.6402 26.759 97.5604 26.8159C97.4807 26.8615 97.3839 26.8842 97.27 26.8842ZM98.5341 26.8725L98.9441 25.9501H106.05L106.443 26.8725H98.5341Z" fill="#252525"/>
<path fill-rule="evenodd" clip-rule="evenodd" d="M96.7013 26.6812L96.7 26.6782C96.6073 26.4796 96.603 26.2816 96.7003 26.0972L101.873 13.8561C101.925 13.7211 102.001 13.6107 102.107 13.5344C102.213 13.4573 102.34 13.4219 102.48 13.4219C102.617 13.4219 102.74 13.4581 102.846 13.5344C102.95 13.6101 103.029 13.7194 103.086 13.8536L103.087 13.854L108.277 26.0958C108.388 26.2949 108.376 26.5043 108.255 26.7064L108.254 26.708L108.253 26.7095C108.128 26.9043 107.941 27.004 107.708 27.004C107.578 27.004 107.459 26.978 107.357 26.9198L107.348 26.9145L107.34 26.9077C107.255 26.8366 107.183 26.7357 107.122 26.6128L107.12 26.6093L102.481 15.5489L97.8604 26.6037C97.8603 26.604 97.8602 26.6043 97.8601 26.6046C97.8081 26.7341 97.7332 26.84 97.6307 26.9132L97.6258 26.9168L97.6205 26.9198C97.5187 26.978 97.4002 27.004 97.2703 27.004C97.1463 27.004 97.0327 26.9795 96.9343 26.9248C96.8351 26.8697 96.7582 26.7877 96.7029 26.684L96.7013 26.6812ZM97.7486 26.559L102.481 15.2371L107.229 26.559C107.286 26.6729 107.349 26.7583 107.417 26.8152C107.497 26.8608 107.594 26.8836 107.708 26.8836C107.901 26.8836 108.049 26.8038 108.152 26.6444C108.254 26.4736 108.26 26.3085 108.169 26.149L102.976 13.901C102.873 13.6619 102.708 13.5423 102.48 13.5423C102.241 13.5423 102.076 13.6619 101.985 13.901L96.8091 26.149C96.7294 26.2971 96.7294 26.4565 96.8091 26.6273C96.9002 26.7982 97.054 26.8836 97.2703 26.8836C97.3842 26.8836 97.481 26.8608 97.5607 26.8152C97.6404 26.7583 97.7031 26.6729 97.7486 26.559ZM98.3491 26.9922L98.8661 25.829H106.13L106.626 26.9922H98.3491ZM98.5344 26.8718H106.444L106.051 25.9494H98.9444L98.5344 26.8718Z" fill="#252525"/>
<path d="M88.2605 26.8842C88.1125 26.8842 87.9872 26.8387 87.8847 26.7476C87.7936 26.6451 87.748 26.5198 87.748 26.3718V14.0554C87.748 13.896 87.7936 13.7707 87.8847 13.6796C87.9872 13.5885 88.1125 13.543 88.2605 13.543H91.5232C92.3546 13.543 93.0891 13.7195 93.7269 14.0725C94.376 14.4142 94.8828 14.8868 95.2472 15.4903C95.6116 16.0939 95.7938 16.7943 95.7938 17.5915C95.7938 18.3659 95.6116 19.0549 95.2472 19.6584C94.8828 20.262 94.376 20.7346 93.7269 21.0763C93.0891 21.4179 92.3546 21.5887 91.5232 21.5887H88.773V26.3718C88.773 26.5198 88.7274 26.6451 88.6363 26.7476C88.5452 26.8387 88.4199 26.8842 88.2605 26.8842ZM95.4351 26.8842C95.3098 26.8842 95.213 26.8615 95.1447 26.8159C95.0877 26.759 95.0308 26.6906 94.9739 26.6109L91.5745 21.1788L92.6336 20.9396L95.8621 26.0985C96.0102 26.3262 96.0387 26.5141 95.9475 26.6622C95.8678 26.8102 95.697 26.8842 95.4351 26.8842ZM88.773 20.5638H91.5232C92.161 20.5638 92.719 20.4385 93.1973 20.188C93.687 19.9261 94.0685 19.573 94.3418 19.1289C94.6265 18.6847 94.7689 18.1723 94.7689 17.5915C94.7689 16.9993 94.6265 16.4754 94.3418 16.0199C94.0685 15.5644 93.687 15.2113 93.1973 14.9608C92.719 14.6989 92.161 14.5679 91.5232 14.5679H88.773V20.5638Z" fill="#252525"/>
<path fill-rule="evenodd" clip-rule="evenodd" d="M87.7987 26.8322L87.794 26.8269C87.6817 26.7005 87.627 26.5461 87.627 26.3711V14.0548C87.627 13.8714 87.6801 13.7126 87.7989 13.5938L87.8014 13.5913L87.804 13.5889C87.9304 13.4766 88.0848 13.4219 88.2598 13.4219H91.5226C92.3709 13.4219 93.1257 13.6021 93.7834 13.9659C94.4506 14.3173 94.9736 14.8047 95.3496 15.4274C95.7268 16.0521 95.9135 16.7746 95.9135 17.5908C95.9135 18.3849 95.7264 19.0958 95.3496 19.72C94.9734 20.343 94.4502 20.8305 93.7827 21.1819C93.5679 21.2969 93.3428 21.393 93.1075 21.4702L95.963 26.0331C96.1194 26.2741 96.1764 26.5151 96.0512 26.7216C95.9397 26.9254 95.7125 27.004 95.4344 27.004C95.297 27.004 95.1732 26.9794 95.0772 26.9154L95.0673 26.9088L95.0589 26.9004C94.9963 26.8379 94.9352 26.7642 94.8752 26.6802L94.8731 26.6772L91.7607 21.7038C91.6822 21.7069 91.6028 21.7085 91.5226 21.7085H88.8927V26.3711C88.8927 26.5461 88.838 26.7005 88.7256 26.8269L88.7233 26.8295L88.7208 26.832C88.602 26.9508 88.4432 27.004 88.2598 27.004C88.0848 27.004 87.9304 26.9492 87.804 26.8369L87.7987 26.8322ZM88.7723 21.588H91.5226C91.5778 21.588 91.6325 21.5873 91.6869 21.5858C91.7334 21.5845 91.7796 21.5827 91.8255 21.5803L94.9732 26.6102C95.0301 26.69 95.0871 26.7583 95.144 26.8152C95.2123 26.8608 95.3091 26.8836 95.4344 26.8836C95.6963 26.8836 95.8672 26.8095 95.9469 26.6615C96.038 26.5134 96.0095 26.3255 95.8615 26.0978L92.9223 21.4013C92.9624 21.3897 93.0021 21.3776 93.0416 21.365C93.281 21.2883 93.5092 21.1918 93.7262 21.0756C94.3753 20.7339 94.8821 20.2613 95.2465 19.6578C95.6109 19.0542 95.7931 18.3652 95.7931 17.5908C95.7931 16.7936 95.6109 16.0932 95.2465 15.4897C94.8821 14.8861 94.3753 14.4135 93.7262 14.0718C93.0884 13.7188 92.3539 13.5423 91.5226 13.5423H88.2598C88.1118 13.5423 87.9865 13.5878 87.884 13.6789C87.7929 13.7701 87.7474 13.8953 87.7474 14.0548V26.3711C87.7474 26.5191 87.7929 26.6444 87.884 26.7469C87.9865 26.838 88.1118 26.8836 88.2598 26.8836C88.4193 26.8836 88.5445 26.838 88.6356 26.7469C88.7268 26.6444 88.7723 26.5191 88.7723 26.3711V21.588ZM94.2392 19.0641L94.2398 19.0632C94.5108 18.6404 94.6478 18.151 94.6478 17.5908C94.6478 17.0188 94.5106 16.5175 94.239 16.083L94.2384 16.0821L94.2379 16.0812C93.9766 15.6457 93.6122 15.308 93.1418 15.0673L93.1403 15.0665L93.1388 15.0657C92.681 14.815 92.1435 14.6876 91.5226 14.6876H88.8927V20.4427H91.5226C92.1441 20.4427 92.6822 20.3207 93.1403 20.0809C93.6122 19.8283 93.9773 19.4898 94.2386 19.0651L94.2392 19.0641ZM93.1966 20.1873C92.7183 20.4378 92.1603 20.5631 91.5226 20.5631H88.7723V14.5672H91.5226C92.1603 14.5672 92.7183 14.6982 93.1966 14.9601C93.6863 15.2107 94.0678 15.5637 94.3411 16.0192C94.6258 16.4748 94.7682 16.9986 94.7682 17.5908C94.7682 18.1716 94.6258 18.6841 94.3411 19.1282C94.0678 19.5723 93.6863 19.9254 93.1966 20.1873Z" fill="#252525"/>
<path d="M80.4811 26.8842C80.333 26.8842 80.2077 26.8387 80.1052 26.7476C80.0141 26.6451 79.9686 26.5198 79.9686 26.3718V13.543H80.9935V26.3718C80.9935 26.5198 80.9423 26.6451 80.8398 26.7476C80.7487 26.8387 80.6291 26.8842 80.4811 26.8842ZM75.6468 14.4654C75.5101 14.4654 75.3962 14.4256 75.3051 14.3458C75.2254 14.2547 75.1855 14.1408 75.1855 14.0042C75.1855 13.8675 75.2254 13.7593 75.3051 13.6796C75.3962 13.5885 75.5101 13.543 75.6468 13.543H88.5183C88.6549 13.543 88.7631 13.5885 88.8428 13.6796C88.9339 13.7593 88.9795 13.8675 88.9795 14.0042C88.9795 14.1408 88.9339 14.2547 88.8428 14.3458C88.7631 14.4256 88.6549 14.4654 88.5183 14.4654H75.6468Z" fill="#252525"/>
<path fill-rule="evenodd" clip-rule="evenodd" d="M80.0203 26.8322L80.0155 26.8269C79.9032 26.7005 79.8485 26.5461 79.8485 26.3711V14.5851H75.6471C75.4853 14.5851 75.342 14.5372 75.2261 14.4358L75.2201 14.4305L75.2148 14.4245C75.1134 14.3085 75.0654 14.1653 75.0654 14.0035C75.0654 13.8421 75.1133 13.7007 75.2203 13.5938C75.3354 13.4786 75.4806 13.4219 75.6471 13.4219H88.5186C88.6822 13.4219 88.8233 13.477 88.9284 13.5937C89.0451 13.6988 89.1002 13.8399 89.1002 14.0035C89.1002 14.17 89.0434 14.3151 88.9283 14.4303L88.8431 14.3452C88.9342 14.2541 88.9798 14.1402 88.9798 14.0035C88.9798 13.8669 88.9342 13.7587 88.8431 13.6789C88.7634 13.5878 88.6552 13.5423 88.5186 13.5423H75.6471C75.5104 13.5423 75.3965 13.5878 75.3054 13.6789C75.2257 13.7587 75.1858 13.8669 75.1858 14.0035C75.1858 14.1402 75.2257 14.2541 75.3054 14.3452C75.3965 14.4249 75.5104 14.4647 75.6471 14.4647H79.9689V26.3711C79.9689 26.5191 80.0144 26.6444 80.1055 26.7469C80.208 26.838 80.3333 26.8836 80.4814 26.8836C80.6294 26.8836 80.749 26.838 80.8401 26.7469C80.9426 26.6444 80.9938 26.5191 80.9938 26.3711V14.4647H88.5186C88.6552 14.4647 88.7634 14.4249 88.8431 14.3452L88.9283 14.4303C88.8213 14.5372 88.6799 14.5851 88.5186 14.5851H81.1142V26.3711C81.1142 26.5503 81.0508 26.7064 80.9252 26.832C80.8081 26.9491 80.6562 27.004 80.4814 27.004C80.3064 27.004 80.1519 26.9492 80.0255 26.8369L80.0203 26.8322Z" fill="#252525"/>
<path d="M70.3411 26.771C70.102 26.771 69.897 26.6855 69.7262 26.5147C69.5553 26.3439 69.4699 26.1332 69.4699 25.8827V21.9025L64.9089 14.8134C64.7609 14.5742 64.704 14.3521 64.7381 14.1471C64.7723 13.9308 64.8691 13.7599 65.0285 13.6347C65.1993 13.498 65.3929 13.4297 65.6093 13.4297C65.8029 13.4297 65.9567 13.4752 66.0705 13.5663C66.1844 13.6461 66.2926 13.7656 66.3951 13.9251L70.734 20.8092H70.0507L74.458 13.8567C74.5491 13.7201 74.6572 13.6176 74.7825 13.5493C74.9078 13.4695 75.0615 13.4297 75.2437 13.4297C75.4487 13.4297 75.6195 13.5037 75.7562 13.6518C75.8929 13.7884 75.9726 13.9649 75.9954 14.1813C76.0181 14.3863 75.9612 14.597 75.8245 14.8134L71.2294 21.9025V25.8827C71.2294 26.1332 71.144 26.3439 70.9732 26.5147C70.8023 26.6855 70.5917 26.771 70.3411 26.771Z" fill="#00AEEF"/>
<path d="M57.9508 26.771C57.7116 26.771 57.5009 26.6855 57.3187 26.5147C57.1479 26.3439 57.0625 26.1332 57.0625 25.8827V14.318C57.0625 14.0674 57.1479 13.8567 57.3187 13.6859C57.5009 13.5151 57.7116 13.4297 57.9508 13.4297C58.2013 13.4297 58.412 13.5151 58.5828 13.6859C58.7536 13.8567 58.8391 14.0674 58.8391 14.318V19.4427L64.4933 13.7884C64.63 13.6518 64.7552 13.5607 64.8691 13.5151C64.983 13.4582 65.1026 13.4297 65.2278 13.4297C65.5125 13.4297 65.7175 13.5151 65.8428 13.6859C65.9681 13.8567 66.0136 14.0617 65.9795 14.3009C65.9453 14.5286 65.8371 14.7393 65.6549 14.9329L61.2989 19.306L65.7403 25.3531C65.877 25.5467 65.9339 25.7574 65.9111 25.9852C65.8884 26.2015 65.8086 26.3895 65.672 26.5489C65.5353 26.6969 65.3531 26.771 65.1253 26.771C64.8065 26.771 64.5616 26.6457 64.3908 26.3951L60.069 20.5359L58.8391 21.7658V25.8827C58.8391 26.1332 58.7536 26.3439 58.5828 26.5147C58.412 26.6855 58.2013 26.771 57.9508 26.771Z" fill="#00AEEF"/>
<path d="M50.1555 26.9412C49.4267 26.9412 48.732 26.8273 48.0715 26.5996C47.411 26.3718 46.8359 26.0529 46.3462 25.643C45.8565 25.233 45.4977 24.7604 45.27 24.2251C45.1561 23.986 45.1561 23.7639 45.27 23.5589C45.3953 23.3539 45.6002 23.223 45.8849 23.166C46.0899 23.1205 46.2892 23.1546 46.4828 23.2685C46.6878 23.371 46.8416 23.5305 46.944 23.7468C47.0807 24.0315 47.3028 24.2935 47.6103 24.5326C47.9291 24.7718 48.3106 24.9654 48.7548 25.1134C49.1989 25.2615 49.6658 25.3355 50.1555 25.3355C50.7022 25.3355 51.2032 25.2501 51.6588 25.0793C52.1257 24.9084 52.5015 24.6636 52.7862 24.3447C53.0709 24.0145 53.2132 23.6102 53.2132 23.1319C53.2132 22.5283 52.9741 21.9874 52.4958 21.5091C52.0289 21.0308 51.2545 20.7347 50.1726 20.6208C48.7605 20.4841 47.6501 20.0684 46.8416 19.3738C46.033 18.6791 45.6287 17.8193 45.6287 16.7943C45.6287 16.0427 45.8394 15.405 46.2608 14.8811C46.6821 14.3573 47.2515 13.9587 47.969 13.6854C48.6978 13.412 49.5064 13.2754 50.3947 13.2754C51.0893 13.2754 51.6929 13.3722 52.2054 13.5658C52.7292 13.7594 53.1848 14.027 53.572 14.3687C53.9592 14.7103 54.2951 15.1146 54.5798 15.5815C54.7393 15.832 54.8019 16.0712 54.7677 16.299C54.745 16.5153 54.6368 16.6862 54.4432 16.8114C54.2268 16.9481 53.9933 16.9766 53.7428 16.8968C53.4923 16.8171 53.3044 16.6691 53.1791 16.4527C52.9969 16.1224 52.7748 15.8434 52.5129 15.6157C52.2509 15.3879 51.9435 15.2114 51.5904 15.0861C51.2374 14.9495 50.8217 14.8811 50.3434 14.8811C49.5007 14.8697 48.7946 15.0292 48.2252 15.3594C47.6558 15.6783 47.3711 16.1737 47.3711 16.8456C47.3711 17.1872 47.4565 17.5175 47.6273 17.8364C47.8095 18.1438 48.1341 18.4115 48.601 18.6392C49.0793 18.867 49.7626 19.0264 50.6509 19.1175C52.0061 19.2542 53.0595 19.6699 53.8111 20.3645C54.5741 21.0478 54.9556 21.9532 54.9556 23.0806C54.9556 23.7298 54.819 24.2935 54.5457 24.7718C54.2837 25.2501 53.925 25.6544 53.4695 25.9846C53.0253 26.3035 52.5129 26.5426 51.9321 26.7021C51.3627 26.8615 50.7705 26.9412 50.1555 26.9412Z" fill="#00AEEF"/>
</svg>
