<?xml version="1.0" encoding="UTF-8"?>
<svg version="1.1" viewBox="0 0 900 900" width="1280" height="1280" xmlns="http://www.w3.org/2000/svg">
<path transform="translate(0)" d="m0 0h900v900h-900z" fill="#2679E7"/>
<path transform="translate(0)" d="m0 0h900v900h-900zm442 46-30 2-28 4-37 8-30 9-24 9-25 12-24 13-21 13-16 12-10 8-14 12-8 7-15 14-1 3h-2l-7 8-12 14-14 18-16 24-9 15-15 29-11 26-10 30-7 28-5 27-3 24-1 16v46l4 32 5 27 9 35 11 30 9 20 8 17 14 24 18 27 10 12 8 10 9 10 7 8 19 19 11 9 13 11 14 10 20 14 11 6 17 10 23 11 19 8 30 10 32 8 30 5 26 3 18 1h18l27-2 39-6 30-7 29-9 25-10 22-10 22-12 19-12 17-12 15-12 11-9 13-12 20-20 9-11 8-9 14-19 10-15 13-22 10-19 9-20 9-24 9-29 6-27 5-31 2-23v-40l-2-26-5-32-7-30-8-26-9-24-11-24-14-26-11-17-14-20-13-16-11-13-27-27-11-9-13-11-18-13-15-10-21-12-25-13-19-8-25-9-24-7-39-8-33-4-17-1z" fill="#FDFFFD"/>
<path transform="translate(732,166)" d="m0 0 5 1 15 15 9 11 12 15 11 16 14 22 14 26 11 24 10 28 7 23 8 38 4 31 1 16v40l-2 23-6 36-6 25-8 26-7 19-8 18-9 19-14 24-9 14-10 14-10 13-12 14-11 12-20 20-11 9-12 10-19 14-17 11-21 12-16 8-17 8-26 10-26 8-36 8-33 5-27 2h-18l-30-2-39-6-9-2v-4l9-2 5-1-4-3-7-2 4-3 6-3-2-7 8-15 5-3 1-2 7-3 2-5 3-5 8-7h5l1-5 5-4 3-8 3-10 3-3v-2l6-5 1-8 3-5 5-5 2-4h2l3-9 3-4 1-7 3-4 1-5 4-2 2-5 3-5 1-4h5l3-8 4-9h2v-2h2l1-5 8-6 2-2 2-8 2-5 1-7 8-4h3l2-4 5-2 1-2-4-2 1-2 4-4 1-4 2-1 5 5h3v-2h21l-1-3-13-5-2-1v-2h-2l-2-8-2-7v-7l2-3-2-1 1-3 1-7h1l3 20v2h2l4 8 4 5 10 6 7 2h7l10-3 9-6 7-11 1-2 1-152 1-13 4 2 7 8 51 51 8 5 11 3 10-1 10-5 3-1 2-4 5-8 2-5v-14l-5-10-9-10-13-15-23-23v-2l-4-2-16-16v-2l6 2v2l4 1 4 4 1-3-5-5-3-5-4-5 1-3h2l2-7-1-8 3-6h3v-2l4-3 7-2 2-4 1-5h6l2-3 3-12 6-11 3-6v-5l3-2 2 1 2-8 3 1 1-6 5-1 3 1 2-11 3-5 5-2 4-7 6-2 4-3 7-1v-2l4-1 2-4 4-4h-2l-2-3v-10l4-2 2-4 8 7h2l-1-5h-2l-9-11-9-10-4-4-2-4-4-4z" fill="#0D57D7"/>
<path transform="translate(565,302)" d="m0 0 11 1 12 6 12 11 11 12 78 78 7 6 7 8 6 7 5 10v14l-6 12-4 5-10 6-9 2-9-1-9-4-8-6-59-59-1 165-6 10-4 5-10 6-8 2h-7l-11-4-9-7-5-8-2-7-1-160-4 2-39 39-2 3h-2l-2 4-8 7-15 15-5 6h-2l-2 4-8 7-79 79-5 6-8 7-6 4-10 3-10-1-10-4-13-11-8-8-7-8-27-27-8-7-28-28v-2h-2l-7-8-6-5-17-17-6-9-2-5v-17l5-10 5-5 5-4 10-4h8l13 4 9 7 9 8v2h2l7 8 43 43v-159l3-10 7-9 6-5 10-4h11l11 4 8 7 5 9 2 8v158l8-7 64-64h2l2-4 5-5h2l2-4 13-13 8-7 2-3h2v-2l5-4 7-8 10-10h2l2-4 38-38 11-9 8-4z" fill="#FDFFFD"/>
<path transform="translate(600,410)" d="m0 0 4 2 7 8 23 23v5l1 2-4 1-5 1-2-1-1 3v-3l-5 3h-2v2h-3l-2 4h-2l-1 4-5-9-1-4-1 115-1 9h-1v-152z" fill="#2679E7"/>
<path transform="translate(688,142)" d="m0 0 5 2 3 2v2l4 1 3 6 4 2 5 7-1 9-4 4-4 1-7-3 5-5 1-6-3 1v3l2 1-4 1-1-5-6 2-1 3-5 1-2-1v-2h3v-2l8-5-1-6-6-7v-5z" fill="#0D57D7"/>
<path transform="translate(364,843)" d="m0 0 10 1 11 1v2h9l17 2 4 1 18 1h40l20-2 6-1h9v1l-21 3-27 2h-18l-30-2-39-6-9-2z" fill="#277AE8"/>
<path transform="translate(631,349)" d="m0 0 6 2v3h2l4 6-1 2-4-2-6-8z" fill="#125EDA"/>
<path transform="translate(611,330)" d="m0 0 5 2 8 7 3 3-1 3-1-2h-2l-4-4v-2l-4-2z" fill="#0D57D7"/>
<path transform="translate(508,474)" d="m0 0 4 2 4 3-5 1-7-2z" fill="#0D57D7"/>
<path transform="translate(347,837)" d="m0 0h9l6 2v1h-9l-6-1z" fill="#0D57D7"/>
<path transform="translate(334,833)" d="m0 0 6 1 3-1 1 2-3 2-8-1z" fill="#1461DC"/>
</svg>
